<svg xmlns="http://www.w3.org/2000/svg" width="58" height="34"><path fill-rule="evenodd" fill="#001A72" d="M43.66 17h-4.001a4.004 4.004 0 0 0-4.001 4.006 4.004 4.004 0 0 0 4.001 4.005h4.001a4.003 4.003 0 0 0 3.999-4.005A4.003 4.003 0 0 0 43.66 17M33.319 4.983v24.034a4.003 4.003 0 0 1-4 4.005 4.003 4.003 0 0 1-4.001-4.005V16.502l-5.524 6.987a3.988 3.988 0 0 1-6.269 0l-5.524-6.987v12.515A4.003 4.003 0 0 1 4 33.022c-2.208 0-4-1.794-4-4.005V4.983A4.003 4.003 0 0 1 4 .978c1.272 0 2.402.596 3.135 1.522l9.524 12.049L26.183 2.5A3.988 3.988 0 0 1 29.318.978a4.003 4.003 0 0 1 4.001 4.005zm24.681 0a4.003 4.003 0 0 0-4-4.005h-4.001c-2.209 0-4 1.793-4 4.005a4.003 4.003 0 0 0 4 4.006v20.028A4.003 4.003 0 0 0 54 33.022c2.209 0 4-1.794 4-4.005V4.983z"/></svg>