<?xml version="1.0" encoding="utf-8"?>
<!-- Generator: Adobe Illustrator 24.3.0, SVG Export Plug-In . SVG Version: 6.00 Build 0)  -->
<svg version="1.0" id="Layer_1" xmlns="http://www.w3.org/2000/svg" xmlns:xlink="http://www.w3.org/1999/xlink" x="0px" y="0px"
	 viewBox="0 0 199.48 133.98" style="enable-background:new 0 0 199.48 133.98;" xml:space="preserve">
<style type="text/css">
	.st0{fill:#FFFFFF;}
</style>
<g>
	<path class="st0" d="M64.41,29.25C62.89,29.09,61.33,29,59.69,29H33.77v57.6h19.26V70.96h6.25c7.95,0,14.59-1.95,19.2-5.69
		L64.41,29.25z M58.21,57.22h-5.18V44.39h5.27c5.1,0,8.14,2.14,8.14,6.34v0.16C66.44,55,63.15,57.22,58.21,57.22z"/>
	<polygon class="st0" points="115.07,29 84.42,29 93.99,54.45 99.75,41.06 105.5,54.45 	"/>
	<polygon class="st0" points="93.62,86.6 105.87,86.6 99.74,69.26 	"/>
	<path class="st0" d="M153.01,68.04c6.99-3.37,11.37-9.37,11.37-18.63v-0.16c0-6.11-2.15-10.37-5.65-13.87
		c-3.21-3.21-9.5-6.37-21.06-6.37h-2.46l-22.5,57.6h19.18V70.96l2.6,0l9.26,15.63h21.97L153.01,68.04z M145.46,51.29
		c0,3.73-3.01,5.9-7.96,5.9h-5.59V45.31h5.68c4.78,0,7.87,1.91,7.87,5.81V51.29z"/>
	<g>
		<path class="st0" d="M33.76,95.16h4.12c2.43,0,4,1.25,4,3.38v0.03c0,2.27-1.75,3.46-4.14,3.46h-1.32v2.75h-2.67V95.16z
			 M37.7,99.94c0.95,0,1.53-0.5,1.53-1.25v-0.03c0-0.83-0.58-1.27-1.54-1.27h-1.25v2.54H37.7z"/>
		<path class="st0" d="M42.69,100v-0.03c0-2.76,2.23-5,5.2-5c2.97,0,5.17,2.21,5.17,4.98v0.03c0,2.77-2.23,5.01-5.2,5.01
			C44.89,104.98,42.69,102.76,42.69,100z M50.34,100v-0.03c0-1.39-1-2.6-2.47-2.6c-1.46,0-2.44,1.18-2.44,2.57v0.03
			c0,1.39,1,2.6,2.46,2.6C49.36,102.57,50.34,101.39,50.34,100z"/>
		<path class="st0" d="M53.26,95.16h2.82l1.67,5.57l1.86-5.6h2.3l1.85,5.6l1.68-5.57h2.76l-3.22,9.7h-2.33l-1.93-5.54l-1.93,5.54
			h-2.33L53.26,95.16z"/>
		<path class="st0" d="M69.27,95.16h7.74v2.27h-5.1v1.46h4.62v2.1h-4.62v1.53h5.17v2.27h-7.81V95.16z"/>
		<path class="st0" d="M78.45,95.16H83c1.47,0,2.49,0.39,3.14,1.04c0.56,0.55,0.85,1.29,0.85,2.24v0.03c0,1.47-0.78,2.45-1.98,2.96
			l2.29,3.36h-3.08l-1.94-2.92h-1.17v2.92h-2.67V95.16z M82.88,99.78c0.91,0,1.43-0.44,1.43-1.14v-0.03c0-0.76-0.55-1.14-1.45-1.14
			h-1.74v2.31H82.88z"/>
		<path class="st0" d="M92.15,95.16h2.67v3.6h3.42v-3.6h2.67v9.63h-2.67v-3.66h-3.42v3.66h-2.67V95.16z"/>
		<path class="st0" d="M102.68,95.16h2.68v9.63h-2.68V95.16z"/>
		<path class="st0" d="M109.47,97.49h-2.89v-2.34h8.44v2.34h-2.89v7.29h-2.67V97.49z"/>
		<path class="st0" d="M120.01,95.16h4.55c1.47,0,2.49,0.39,3.13,1.04c0.57,0.55,0.86,1.29,0.86,2.24v0.03
			c0,1.47-0.79,2.45-1.98,2.96l2.3,3.36h-3.09l-1.94-2.92h-1.17v2.92h-2.67V95.16z M124.44,99.78c0.9,0,1.43-0.44,1.43-1.14v-0.03
			c0-0.76-0.55-1.14-1.44-1.14h-1.75v2.31H124.44z"/>
		<path class="st0" d="M133.05,95.09h2.57l4.1,9.7h-2.86l-0.71-1.72h-3.71l-0.69,1.72h-2.81L133.05,95.09z M135.39,100.99
			l-1.07-2.74l-1.09,2.74H135.39z"/>
		<path class="st0" d="M140.66,95.16h3.71c3.44,0,5.43,1.98,5.43,4.76v0.03c0,2.78-2.03,4.84-5.49,4.84h-3.66V95.16z M144.41,102.42
			c1.59,0,2.65-0.88,2.65-2.43v-0.03c0-1.54-1.06-2.43-2.65-2.43h-1.09v4.9H144.41z"/>
		<path class="st0" d="M151.24,95.16h2.68v9.63h-2.68V95.16z"/>
		<path class="st0" d="M155.35,100v-0.03c0-2.76,2.23-5,5.2-5c2.97,0,5.17,2.21,5.17,4.98v0.03c0,2.77-2.23,5.01-5.2,5.01
			C157.55,104.98,155.35,102.76,155.35,100z M163,100v-0.03c0-1.39-1.01-2.6-2.48-2.6c-1.46,0-2.43,1.18-2.43,2.57v0.03
			c0,1.39,1,2.6,2.46,2.6C162.02,102.57,163,101.39,163,100z"/>
	</g>
</g>
</svg>
