<?xml version="1.0" encoding="utf-8"?>
<!-- Generator: Adobe Illustrator 25.2.3, SVG Export Plug-In . SVG Version: 6.00 Build 0)  -->
<svg version="1.1" id="Layer_1" xmlns="http://www.w3.org/2000/svg" xmlns:xlink="http://www.w3.org/1999/xlink" x="0px" y="0px"
	 viewBox="0 0 260.5 150" style="enable-background:new 0 0 260.5 150;" xml:space="preserve">
<style type="text/css">
	.st0{fill:url(#SVGID_1_);}
	.st1{display:none;}
	.st2{display:inline;fill:url(#SVGID_2_);}
	.st3{display:inline;fill:url(#SVGID_3_);}
	.st4{display:inline;fill:url(#SVGID_4_);}
	.st5{display:inline;fill:url(#SVGID_5_);}
	.st6{fill:url(#SVGID_6_);}
	.st7{display:inline;fill:#FFFFFF;}
	.st8{display:inline;}
	.st9{fill:#FFFFFF;}
</style>
<g>
	<g>
		<linearGradient id="SVGID_1_" gradientUnits="userSpaceOnUse" x1="103.1188" y1="93.7104" x2="111.0535" y2="3.0164">
			<stop  offset="0" style="stop-color:#9E6F02"/>
			<stop  offset="8.291907e-02" style="stop-color:#B58A22"/>
			<stop  offset="0.1705" style="stop-color:#C79F3D"/>
			<stop  offset="0.2601" style="stop-color:#D4AF50"/>
			<stop  offset="0.352" style="stop-color:#DCB85B"/>
			<stop  offset="0.45" style="stop-color:#DFBB5F"/>
			<stop  offset="0.6" style="stop-color:#FCE094"/>
			<stop  offset="0.92" style="stop-color:#C99C44"/>
		</linearGradient>
		<path class="st0" d="M49.8,0.4c-2.5-0.3-5-0.4-7.7-0.4H0v93.6h31.3V68.2h10.2c12.9,0,23.7-3.2,31.2-9.2L49.8,0.4z M39.7,45.9h-8.4
			V25h8.6c8.3,0,13.2,3.5,13.2,10.3v0.3C53.1,42.3,47.7,45.9,39.7,45.9z M132.1,0H82.3l15.6,41.4l9.4-21.8l9.3,21.8L132.1,0z
			 M97.3,93.6h19.9l-10-28.2L97.3,93.6z M193.8,63.4c11.4-5.5,18.5-15.2,18.5-30.3v-0.3c0-9.9-3.5-16.8-9.2-22.5
			C197.9,5.1,187.6,0,168.8,0h-4l-36.6,93.6h31.2V68.2l4.2,0l15.1,25.4h35.7L193.8,63.4z M181.5,36.2c0,6.1-4.9,9.6-12.9,9.6h-9.1
			V26.5h9.2c7.8,0,12.8,3.1,12.8,9.4V36.2z"/>
		<g class="st1">
			<linearGradient id="SVGID_2_" gradientUnits="userSpaceOnUse" x1="37.5589" y1="128.8784" x2="67.8147" y2="128.8784">
				<stop  offset="0" style="stop-color:#9E6F02"/>
				<stop  offset="8.291907e-02" style="stop-color:#B58A22"/>
				<stop  offset="0.1705" style="stop-color:#C79F3D"/>
				<stop  offset="0.2601" style="stop-color:#D4AF50"/>
				<stop  offset="0.352" style="stop-color:#DCB85B"/>
				<stop  offset="0.45" style="stop-color:#DFBB5F"/>
				<stop  offset="0.6" style="stop-color:#FCE094"/>
				<stop  offset="0.92" style="stop-color:#C99C44"/>
			</linearGradient>
			<path class="st2" d="M54.8,121.5c2.6,0,4.8,1.1,6.6,3.3l6.4-5.6c-1.5-1.9-3.4-3.3-5.7-4.2c-2.3-1-4.9-1.5-7.8-1.5
				c-3.2,0-6.1,0.7-8.6,2c-2.5,1.3-4.5,3.1-6,5.5c-1.4,2.4-2.1,5-2.1,8c0,3,0.7,5.7,2.1,8c1.4,2.4,3.4,4.2,5.9,5.5
				c2.5,1.3,5.3,2,8.5,2c2.2,0,4.5-0.3,6.8-1c2.3-0.6,4.3-1.6,6.1-2.8v-12.5h-8.7v7.5c-1.2,0.5-2.4,0.7-3.6,0.7
				c-2.1,0-3.9-0.7-5.1-2c-1.3-1.4-1.9-3.1-1.9-5.4c0-2.3,0.6-4.1,1.9-5.4C50.9,122.1,52.6,121.5,54.8,121.5z"/>
			<linearGradient id="SVGID_3_" gradientUnits="userSpaceOnUse" x1="74.2791" y1="128.8784" x2="107.6623" y2="128.8784">
				<stop  offset="0" style="stop-color:#9E6F02"/>
				<stop  offset="8.291907e-02" style="stop-color:#B58A22"/>
				<stop  offset="0.1705" style="stop-color:#C79F3D"/>
				<stop  offset="0.2601" style="stop-color:#D4AF50"/>
				<stop  offset="0.352" style="stop-color:#DCB85B"/>
				<stop  offset="0.45" style="stop-color:#DFBB5F"/>
				<stop  offset="0.6" style="stop-color:#FCE094"/>
				<stop  offset="0.92" style="stop-color:#C99C44"/>
			</linearGradient>
			<path class="st3" d="M99.5,115.4c-2.5-1.3-5.4-2-8.6-2s-6,0.7-8.6,2c-2.5,1.3-4.5,3.2-6,5.5c-1.4,2.4-2.2,5-2.2,8
				c0,3,0.7,5.6,2.2,8c1.4,2.4,3.4,4.2,6,5.5c2.5,1.3,5.4,2,8.6,2s6-0.7,8.6-2c2.5-1.3,4.5-3.2,6-5.5s2.2-5,2.2-8c0-3-0.7-5.6-2.2-8
				S102.1,116.7,99.5,115.4z M96.7,132.8c-0.6,1.1-1.4,2-2.4,2.6c-1,0.6-2.1,0.9-3.4,0.9c-1.2,0-2.4-0.3-3.4-0.9
				c-1-0.6-1.8-1.5-2.4-2.6c-0.6-1.1-0.9-2.4-0.9-3.9c0-1.5,0.3-2.8,0.9-3.9c0.6-1.1,1.4-2,2.4-2.6s2.1-0.9,3.4-0.9
				c1.2,0,2.4,0.3,3.4,0.9s1.8,1.5,2.4,2.6s0.9,2.4,0.9,3.9C97.6,130.4,97.3,131.7,96.7,132.8z"/>
			<linearGradient id="SVGID_4_" gradientUnits="userSpaceOnUse" x1="115.5218" y1="128.8784" x2="138.8465" y2="128.8784">
				<stop  offset="0" style="stop-color:#9E6F02"/>
				<stop  offset="8.291907e-02" style="stop-color:#B58A22"/>
				<stop  offset="0.1705" style="stop-color:#C79F3D"/>
				<stop  offset="0.2601" style="stop-color:#D4AF50"/>
				<stop  offset="0.352" style="stop-color:#DCB85B"/>
				<stop  offset="0.45" style="stop-color:#DFBB5F"/>
				<stop  offset="0.6" style="stop-color:#FCE094"/>
				<stop  offset="0.92" style="stop-color:#C99C44"/>
			</linearGradient>
			<polygon class="st4" points="125.5,114.1 115.5,114.1 115.5,143.7 138.8,143.7 138.8,135.9 125.5,135.9 			"/>
			<linearGradient id="SVGID_5_" gradientUnits="userSpaceOnUse" x1="145.8188" y1="128.8784" x2="177.0871" y2="128.8784">
				<stop  offset="0" style="stop-color:#9E6F02"/>
				<stop  offset="8.291907e-02" style="stop-color:#B58A22"/>
				<stop  offset="0.1705" style="stop-color:#C79F3D"/>
				<stop  offset="0.2601" style="stop-color:#D4AF50"/>
				<stop  offset="0.352" style="stop-color:#DCB85B"/>
				<stop  offset="0.45" style="stop-color:#DFBB5F"/>
				<stop  offset="0.6" style="stop-color:#FCE094"/>
				<stop  offset="0.92" style="stop-color:#C99C44"/>
			</linearGradient>
			<path class="st5" d="M169.1,115.9c-2.5-1.2-5.4-1.8-8.7-1.8h-14.6v29.6h14.6c3.3,0,6.2-0.6,8.7-1.8c2.5-1.2,4.5-2.9,5.9-5.1
				c1.4-2.2,2.1-4.8,2.1-7.9c0-3-0.7-5.6-2.1-7.9C173.6,118.8,171.6,117.1,169.1,115.9z M165.1,134.1c-1.3,1.2-3,1.8-5.1,1.8h-4.2
				v-14h4.2c2.1,0,3.9,0.6,5.1,1.8c1.3,1.2,1.9,3,1.9,5.2S166.4,132.8,165.1,134.1z"/>
		</g>
	</g>
	<linearGradient id="SVGID_6_" gradientUnits="userSpaceOnUse" x1="104.9108" y1="155.1973" x2="109.1484" y2="106.7613">
		<stop  offset="0" style="stop-color:#9E6F02"/>
		<stop  offset="0" style="stop-color:#A37509"/>
		<stop  offset="6.907852e-02" style="stop-color:#B58A22"/>
		<stop  offset="0.1599" style="stop-color:#C79F3D"/>
		<stop  offset="0.2529" style="stop-color:#D4AF50"/>
		<stop  offset="0.3483" style="stop-color:#DCB85B"/>
		<stop  offset="0.45" style="stop-color:#DFBB5F"/>
		<stop  offset="0.6" style="stop-color:#FCE094"/>
		<stop  offset="0.92" style="stop-color:#C99C44"/>
	</linearGradient>
	<path class="st6" d="M96.7,125c0.6,1.1,0.9,2.4,0.9,3.9c0,1.5-0.3,2.8-0.9,3.9c-0.6,1.1-1.4,2-2.4,2.6c-1,0.6-2.1,0.9-3.4,0.9
		c-1.2,0-2.4-0.3-3.4-0.9c-1-0.6-1.8-1.5-2.4-2.6c-0.6-1.1-0.9-2.4-0.9-3.9c0-1.5,0.3-2.8,0.9-3.9c0.6-1.1,1.4-2,2.4-2.6
		s2.1-0.9,3.4-0.9c1.2,0,2.4,0.3,3.4,0.9S96.1,123.9,96.7,125z M160,121.9h-4.2v14h4.2c2.1,0,3.9-0.6,5.1-1.8c1.3-1.2,1.9-3,1.9-5.2
		s-0.6-4-1.9-5.2C163.8,122.5,162.1,121.9,160,121.9z M214.4,113.1v31.3c0,3.1-2.5,5.6-5.6,5.6H5.6c-3.1,0-5.6-2.5-5.6-5.6v-31.3
		c0-3.1,2.5-5.6,5.6-5.6h203.3C211.9,107.5,214.4,110.1,214.4,113.1z M47.6,128.9c0-2.3,0.6-4.1,1.9-5.4c1.3-1.3,3-2,5.2-2
		c2.6,0,4.8,1.1,6.6,3.3l6.4-5.6c-1.5-1.9-3.4-3.3-5.7-4.2c-2.3-1-4.9-1.5-7.8-1.5c-3.2,0-6.1,0.7-8.6,2c-2.5,1.3-4.5,3.1-6,5.5
		c-1.4,2.4-2.1,5-2.1,8c0,3,0.7,5.7,2.1,8c1.4,2.4,3.4,4.2,5.9,5.5c2.5,1.3,5.3,2,8.5,2c2.2,0,4.5-0.3,6.8-1
		c2.3-0.6,4.3-1.6,6.1-2.8v-12.5h-8.7v7.5c-1.2,0.5-2.4,0.7-3.6,0.7c-2.1,0-3.9-0.7-5.1-2C48.3,132.9,47.6,131.1,47.6,128.9z
		 M107.7,128.9c0-3-0.7-5.6-2.2-8s-3.4-4.2-6-5.5c-2.5-1.3-5.4-2-8.6-2s-6,0.7-8.6,2c-2.5,1.3-4.5,3.2-6,5.5c-1.4,2.4-2.2,5-2.2,8
		c0,3,0.7,5.6,2.2,8c1.4,2.4,3.4,4.2,6,5.5c2.5,1.3,5.4,2,8.6,2s6-0.7,8.6-2c2.5-1.3,4.5-3.2,6-5.5S107.7,131.8,107.7,128.9z
		 M138.8,135.9h-13.4v-21.8h-10v29.6h23.3V135.9z M177.1,128.9c0-3-0.7-5.6-2.1-7.9c-1.4-2.2-3.4-3.9-5.9-5.1
		c-2.5-1.2-5.4-1.8-8.7-1.8h-14.6v29.6h14.6c3.3,0,6.2-0.6,8.7-1.8c2.5-1.2,4.5-2.9,5.9-5.1C176.4,134.5,177.1,131.9,177.1,128.9z"
		/>
</g>
<g class="st1">
	<path class="st7" d="M60.5,0.5c-3-0.3-6.1-0.5-9.3-0.5H0v113.7h38V82.8h12.3c15.7,0,28.8-3.8,37.9-11.2L60.5,0.5z M48.3,55.7H38
		V30.4h10.4c10.1,0,16.1,4.2,16.1,12.5v0.3C64.5,51.3,58,55.7,48.3,55.7z"/>
	<polygon class="st7" points="160.5,0 100,0 118.9,50.3 130.3,23.8 141.6,50.3 	"/>
	<polygon class="st7" points="118.2,113.7 142.4,113.7 130.3,79.5 	"/>
	<path class="st7" d="M235.4,77.1c13.8-6.7,22.4-18.5,22.4-36.8V40c0-12.1-4.2-20.5-11.2-27.4C240.4,6.3,228,0,205.1,0h-4.9
		l-44.4,113.7h37.9V82.8l5.1,0l18.3,30.9h43.4L235.4,77.1z M220.5,44c0,7.4-5.9,11.6-15.7,11.6h-11V32.2H205
		c9.4,0,15.5,3.8,15.5,11.5V44z"/>
	<g class="st8">
		<path class="st9" d="M0,130.6h8.1c4.8,0,7.9,2.5,7.9,6.7v0.1c0,4.5-3.5,6.8-8.2,6.8H5.3v5.4H0V130.6z M7.8,140.1c1.9,0,3-1,3-2.5
			v-0.1c0-1.6-1.1-2.5-3-2.5H5.3v5H7.8z"/>
		<path class="st9" d="M17.6,140.2L17.6,140.2c0-5.5,4.4-9.9,10.3-9.9c5.9,0,10.2,4.4,10.2,9.8v0.1c0,5.5-4.4,9.9-10.3,9.9
			C22,150,17.6,145.6,17.6,140.2z M32.7,140.2L32.7,140.2c0-2.8-2-5.2-4.9-5.2c-2.9,0-4.8,2.3-4.8,5.1v0.1c0,2.7,2,5.1,4.9,5.1
			C30.8,145.2,32.7,142.9,32.7,140.2z"/>
		<path class="st9" d="M38.5,130.6h5.6l3.3,11l3.7-11.1h4.5l3.7,11.1l3.3-11H68l-6.4,19.1h-4.6l-3.8-10.9l-3.8,10.9h-4.6L38.5,130.6
			z"/>
		<path class="st9" d="M70.1,130.6h15.3v4.5H75.3v2.9h9.1v4.2h-9.1v3h10.2v4.5H70.1V130.6z"/>
		<path class="st9" d="M88.2,130.6h9c2.9,0,4.9,0.8,6.2,2.1c1.1,1.1,1.7,2.6,1.7,4.4v0.1c0,2.9-1.5,4.8-3.9,5.8l4.5,6.6h-6.1
			l-3.8-5.8h-2.3v5.8h-5.3V130.6z M97,139.7c1.8,0,2.8-0.9,2.8-2.2v-0.1c0-1.5-1.1-2.3-2.9-2.3h-3.4v4.6H97z"/>
		<path class="st9" d="M115.3,130.6h5.3v7.1h6.8v-7.1h5.3v19h-5.3v-7.2h-6.8v7.2h-5.3V130.6z"/>
		<path class="st9" d="M136.1,130.6h5.3v19h-5.3V130.6z"/>
		<path class="st9" d="M149.5,135.2h-5.7v-4.6h16.7v4.6h-5.7v14.4h-5.3V135.2z"/>
		<path class="st9" d="M170.3,130.6h9c2.9,0,4.9,0.8,6.2,2.1c1.1,1.1,1.7,2.6,1.7,4.4v0.1c0,2.9-1.6,4.8-3.9,5.8l4.5,6.6h-6.1
			l-3.8-5.8h-2.3v5.8h-5.3V130.6z M179,139.7c1.8,0,2.8-0.9,2.8-2.2v-0.1c0-1.5-1.1-2.3-2.8-2.3h-3.4v4.6H179z"/>
		<path class="st9" d="M196,130.5h5.1l8.1,19.1h-5.6l-1.4-3.4h-7.3l-1.4,3.4h-5.5L196,130.5z M200.6,142.1l-2.1-5.4l-2.1,5.4H200.6z
			"/>
		<path class="st9" d="M211,130.6h7.3c6.8,0,10.7,3.9,10.7,9.4v0.1c0,5.5-4,9.6-10.8,9.6H211V130.6z M218.5,145
			c3.1,0,5.2-1.7,5.2-4.8v-0.1c0-3-2.1-4.8-5.2-4.8h-2.1v9.7H218.5z"/>
		<path class="st9" d="M231.9,130.6h5.3v19h-5.3V130.6z"/>
		<path class="st9" d="M240.1,140.2L240.1,140.2c0-5.5,4.4-9.9,10.3-9.9c5.9,0,10.2,4.4,10.2,9.8v0.1c0,5.5-4.4,9.9-10.3,9.9
			C244.4,150,240.1,145.6,240.1,140.2z M255.2,140.2L255.2,140.2c0-2.8-2-5.2-4.9-5.2c-2.9,0-4.8,2.3-4.8,5.1v0.1
			c0,2.7,2,5.1,4.9,5.1C253.2,145.2,255.2,142.9,255.2,140.2z"/>
	</g>
</g>
</svg>
