<?xml version="1.0" encoding="UTF-8"?>
<svg id="Layer_1" data-name="Layer 1" xmlns="http://www.w3.org/2000/svg" viewBox="0 0 747.76 252.41">
  <defs>
    <style>
      .cls-1 {
        fill: #fff;
      }

      .cls-2 {
        fill-rule: evenodd;
      }

      .cls-2, .cls-3 {
        fill: #f2cf15;
      }
    </style>
  </defs>
  <g>
    <path class="cls-1" d="M123.79,31.29s-12.42-.14-18.86-5.5c-6.43-5.36-13.51-13.44-19.09-12.86,0,0,11.5,12.28,8.58,15-.37,.34-2.19,.78-3.31,1.01-.57,.12-1.08,.42-1.45,.87l-.26,.31c-.66,.79-.78,1.9-.3,2.81h0c.46,.88,1.39,1.42,2.38,1.37,5.96-.28,26.49-1.33,32.31-3.01Z"/>
    <path class="cls-1" d="M160.86,22.04c-.44-.95-1.51-2.04-2.95-3.04l-6.37,.58c-.25,.02-.47-.16-.49-.41h0c-.03-.31,.13-.62,.4-.77,1.51-.85,3.4-1.08,3.4-1.08-1.26-.55-2.61-1.05-4-1.18-4.76-.45-16.15,2.92-16.15,2.92l1.51,2.47-2.52-2.22C129.2,15.44,114.47-.1,113.38,0c-.55,.05,3.87,6.82,8.39,13.6l-2.59,.93c-.78,.28-1.19,1.14-.91,1.92h0c.28,.78,1.14,1.19,1.92,.91l3.3-1.18c3.87,5.77,7.34,10.9,7.26,11.01,0,0-3.44-3.83-5.35-6.48-11.15,2-19.21,3.39-19.21,3.39,3.22,2.34,7.9,3.89,11.44,4.81,2.83,.73,5.76,1.03,8.69,.9,0,0,11.29-.83,13.55-1.17,15.1-2.3,22.23-3.95,20.99-6.6Zm-23.09,2.83l-.09-1.08,.82-.13,.09,1.08-.82,.13Zm1.51-.23l-.09-1.08,.82-.13,.09,1.08-.82,.13Zm1.5-.24l-.09-1.08,.82-.13,.09,1.08-.82,.13Zm1.5-.24l-.09-1.08,.82-.13,.09,1.08-.82,.13Zm1.51-.24l-.09-1.08,.82-.13,.09,1.08-.82,.13Zm1.5-.24l-.09-1.08,.82-.13,.09,1.08-.82,.13Zm1.5-.24l-.09-1.08,.82-.13,.09,1.08-.82,.13Zm1.5-.24l-.09-1.08,.82-.13,.09,1.08-.82,.13Zm1.51-.24l-.09-1.08,.82-.13,.09,1.08-.82,.13Zm1.5-.23l-.09-1.08,.82-.13,.09,1.08-.82,.13Zm1.5-.24l-.09-1.08,.82-.13,.09,1.08-.82,.13Zm1.51-.24l-.09-1.08,.82-.13,.09,1.08-.82,.13Z"/>
  </g>
  <path class="cls-3" d="M148.16,81.85l4.53,.66c-1.18,1.37-2.37,2.75-3.55,4.12-2.18-.42-4.36-.84-6.54-1.26,1.84,.81,3.68,1.63,5.52,2.44-1.71,1.99-3.43,3.98-5.14,5.96-2.21-1.22-4.42-2.45-6.63-3.67,1.88,1.61,3.75,3.23,5.63,4.84-1.28,1.49-2.57,2.98-3.85,4.47-1.18-.9-2.37-1.8-3.55-2.7,.99,1.12,1.99,2.24,2.98,3.35-.96,1.11-1.91,2.22-2.87,3.32-1.11-.83-2.22-1.66-3.34-2.49,.94,1.03,1.87,2.06,2.81,3.1-1.1,1.28-2.21,2.56-3.31,3.84-1.39-1.03-2.77-2.07-4.16-3.1,1.17,1.29,2.34,2.58,3.5,3.87-4.01,4.64-8.01,9.29-12.02,13.93,.42-3.99,2.69-22.23,15.7-35.15,9.89-9.82,20.45-11.08,24.35-11.3-1.52,1.76-3.04,3.53-4.56,5.29-1.82,.16-3.66,.32-5.5,.48Z"/>
  <path class="cls-3" d="M166.03,113.16c-1.48-2.94-2.96-5.89-4.44-8.83,.83,3.12,1.67,6.23,2.5,9.35-2.48,.66-4.96,1.32-7.43,1.98-.61-1.84-1.22-3.68-1.84-5.52,.25,1.94,.5,3.87,.75,5.81-1.84,.49-3.69,.98-5.53,1.47-.59-1.71-1.17-3.42-1.76-5.13,.25,1.8,.5,3.6,.74,5.4-2.13,.57-4.26,1.13-6.38,1.7-.73-2.13-1.47-4.27-2.2-6.4,.31,2.25,.62,4.49,.93,6.74-7.73,2.05-15.46,4.11-23.18,6.16,3.38-3.98,19.25-21.95,42.76-26.3,17.87-3.3,30.17,3.12,34.53,5.75-2.93,.78-5.87,1.56-8.8,2.34-2.1-1.18-4.2-2.36-6.3-3.53,1.46,1.35,2.93,2.69,4.39,4.04-2.28,.61-4.57,1.21-6.85,1.82-2.04-2.06-4.07-4.11-6.11-6.17,1.38,2.23,2.77,4.46,4.15,6.69-3.31,.87-6.62,1.75-9.93,2.63Z"/>
  <path class="cls-3" d="M141.86,135.4c.37-1.27,.75-2.54,1.12-3.81-.61,1.18-1.23,2.36-1.84,3.54-1.51-.56-3.02-1.13-4.53-1.69,.47-1.58,.93-3.17,1.4-4.75-.77,1.47-1.53,2.94-2.3,4.41-5.48-2.05-10.96-4.1-16.45-6.15,3.71-.94,20.79-4.94,36.66,2.43,12.06,5.6,16.68,14.64,18.17,18.06-2.08-.78-4.16-1.56-6.25-2.33-.75-1.59-1.51-3.18-2.26-4.78,.3,1.42,.61,2.85,.91,4.27-1.62-.61-3.24-1.21-4.86-1.82-.34-2.09-.69-4.18-1.03-6.27-.12,1.92-.24,3.83-.36,5.75-2.35-.88-4.69-1.75-7.04-2.63,.36-2.38,.73-4.77,1.09-7.15-.82,2.21-1.65,4.42-2.47,6.64-1.76-.66-3.52-1.31-5.27-1.97,.41-1.36,.83-2.71,1.24-4.07-.67,1.26-1.34,2.52-2.02,3.78-1.29-.49-2.6-.97-3.91-1.46Z"/>
  <path class="cls-3" d="M119.26,129.48c2.57,.9,14.28,5.26,20.79,15.88,4.95,8.08,4.13,15.26,3.67,17.87l-2.79-3.84c.18-1.24,.36-2.48,.54-3.72-.38,.96-.76,1.93-1.14,2.89-.72-1-1.45-2-2.17-2.99,.62-1.37,1.24-2.75,1.86-4.12-.83,1.09-1.65,2.18-2.48,3.27-1.05-1.44-2.09-2.89-3.14-4.33,1.16-1.27,2.31-2.54,3.47-3.81-1.36,.99-2.72,1.98-4.08,2.97-.78-1.08-1.57-2.16-2.35-3.25,.78-.64,1.56-1.28,2.34-1.93-.89,.48-1.79,.97-2.68,1.45-.58-.81-1.17-1.61-1.75-2.42,.72-.61,1.44-1.21,2.17-1.82-.83,.46-1.66,.92-2.49,1.37-.67-.93-1.35-1.86-2.02-2.79,.9-.76,1.8-1.51,2.7-2.27-1.04,.57-2.07,1.14-3.11,1.71-2.45-3.37-4.89-6.74-7.34-10.12Z"/>
  <path class="cls-3" d="M100.67,108.59c1.17-1.29,2.34-2.58,3.5-3.87-1.39,1.03-2.77,2.07-4.16,3.1-1.1-1.28-2.21-2.56-3.31-3.84,.94-1.03,1.87-2.06,2.81-3.1-1.11,.83-2.22,1.66-3.33,2.49-.96-1.11-1.91-2.22-2.87-3.32,.99-1.12,1.99-2.24,2.98-3.35-1.18,.9-2.37,1.8-3.55,2.7-1.28-1.49-2.57-2.98-3.85-4.47,1.88-1.61,3.75-3.23,5.63-4.84-2.21,1.22-4.42,2.45-6.63,3.67-1.71-1.99-3.43-3.98-5.14-5.96,1.84-.81,3.68-1.63,5.52-2.44-2.18,.42-4.36,.84-6.54,1.26-1.18-1.37-2.37-2.75-3.55-4.12l4.53-.66c-1.84-.16-3.68-.32-5.52-.49-1.52-1.76-3.04-3.53-4.56-5.29,3.9,.22,14.46,1.48,24.35,11.3,13.01,12.92,15.28,31.17,15.7,35.15-4-4.63-8.01-9.28-12.01-13.92Z"/>
  <path class="cls-3" d="M110.74,100.35c1.59-.91,3.19-1.82,4.78-2.73-1.68,.57-3.35,1.13-5.03,1.69-.42-1.74-.83-3.48-1.25-5.22,1.28-.73,2.55-1.46,3.83-2.19-1.34,.45-2.69,.91-4.03,1.36-.36-1.51-.72-3.01-1.08-4.52,1.37-.8,2.73-1.59,4.1-2.39-1.44,.5-2.87,1-4.31,1.5-.48-2.03-.97-4.05-1.45-6.08,2.36-.99,4.72-1.97,7.08-2.96-2.49,.46-4.97,.92-7.46,1.37-.65-2.7-1.29-5.41-1.94-8.11,1.98-.17,3.96-.33,5.94-.5-2.11-.37-4.21-.73-6.32-1.1-.45-1.87-.89-3.74-1.34-5.6,1.43,.33,2.86,.66,4.28,.99-1.55-.85-3.1-1.7-4.66-2.54-.57-2.4-1.15-4.8-1.72-7.2,3.35,1.67,12.12,6.88,16.57,20.77,5.85,18.27-.11,38.12-1.47,42.42-1.5-6.32-3.01-12.64-4.52-18.96Z"/>
  <path class="cls-3" d="M35.39,105.33c4.36-2.63,16.66-9.05,34.53-5.75,23.51,4.34,39.38,22.31,42.76,26.3-7.73-2.05-15.46-4.11-23.18-6.16,.31-2.25,.62-4.49,.93-6.74-.73,2.13-1.47,4.27-2.2,6.4-2.13-.57-4.26-1.13-6.39-1.7,.25-1.8,.5-3.6,.74-5.4-.59,1.71-1.17,3.42-1.76,5.13-1.84-.49-3.69-.98-5.53-1.47,.25-1.94,.5-3.87,.75-5.81-.61,1.84-1.22,3.68-1.84,5.52-2.48-.66-4.95-1.32-7.43-1.98,.83-3.12,1.67-6.23,2.5-9.35-1.48,2.94-2.96,5.89-4.44,8.83-3.31-.88-6.62-1.76-9.92-2.64,1.38-2.23,2.77-4.46,4.15-6.69-2.04,2.06-4.07,4.11-6.11,6.17-2.28-.61-4.57-1.21-6.85-1.82,1.46-1.35,2.93-2.69,4.39-4.04-2.1,1.18-4.2,2.36-6.3,3.53-2.93-.77-5.86-1.55-8.8-2.33Z"/>
  <path class="cls-3" d="M74.94,129.38c15.87-7.37,32.95-3.37,36.66-2.43-5.48,2.05-10.96,4.1-16.45,6.15-.77-1.47-1.53-2.94-2.3-4.41,.47,1.58,.93,3.17,1.4,4.75-1.51,.56-3.02,1.13-4.53,1.69-.62-1.18-1.23-2.36-1.84-3.54,.37,1.27,.75,2.54,1.12,3.81-1.31,.49-2.61,.98-3.92,1.47-.67-1.26-1.34-2.52-2.01-3.78,.41,1.36,.83,2.71,1.24,4.07-1.76,.66-3.51,1.31-5.27,1.97-.82-2.21-1.65-4.42-2.47-6.64,.36,2.38,.73,4.77,1.09,7.15-2.35,.88-4.69,1.75-7.04,2.63-.12-1.92-.24-3.83-.36-5.75-.34,2.09-.69,4.18-1.03,6.27-1.62,.61-3.24,1.21-4.86,1.82,.3-1.42,.61-2.85,.91-4.27-.75,1.59-1.51,3.18-2.26,4.78-2.08,.78-4.16,1.56-6.25,2.33,1.49-3.43,6.11-12.47,18.17-18.07Z"/>
  <path class="cls-3" d="M110.42,129.48c-2.45,3.37-4.89,6.75-7.34,10.12-1.03-.57-2.07-1.14-3.1-1.71,.9,.76,1.8,1.51,2.7,2.27-.67,.93-1.35,1.86-2.02,2.79-.83-.46-1.66-.92-2.49-1.37,.72,.61,1.44,1.21,2.17,1.82-.58,.8-1.17,1.61-1.75,2.42-.9-.48-1.79-.97-2.69-1.45,.78,.64,1.56,1.28,2.34,1.93-.78,1.08-1.57,2.16-2.35,3.25-1.36-.99-2.72-1.98-4.08-2.97,1.16,1.27,2.31,2.54,3.47,3.81-1.05,1.44-2.09,2.89-3.14,4.33-.83-1.09-1.65-2.18-2.48-3.27,.62,1.37,1.24,2.75,1.86,4.12-.72,1-1.45,2-2.17,2.99-.38-.96-.76-1.93-1.14-2.89,.18,1.24,.36,2.48,.54,3.72l-2.79,3.84c-.46-2.61-1.28-9.8,3.67-17.87,6.5-10.62,18.22-14.98,20.79-15.88Z"/>
  <path class="cls-3" d="M112.8,131.43c-.76,1.76-1.51,3.51-2.27,5.27-.52-.15-1.04-.3-1.56-.46,.48,.25,.96,.5,1.44,.74-.21,.48-.42,.97-.63,1.45-.42-.12-.83-.24-1.25-.37,.38,.2,.77,.4,1.15,.6-.18,.42-.36,.84-.54,1.26-.45-.13-.9-.25-1.35-.38,.41,.21,.83,.42,1.24,.63-.24,.56-.49,1.13-.73,1.69-.71-.31-1.42-.61-2.12-.92,.64,.45,1.29,.91,1.93,1.36-.32,.75-.65,1.5-.97,2.25-.48-.41-.96-.81-1.44-1.22,.42,.55,.83,1.11,1.24,1.66-.22,.52-.45,1.04-.67,1.56-.27-.39-.53-.79-.8-1.18,.21,.54,.41,1.08,.62,1.61-.29,.67-.58,1.33-.86,2-.47-1.12-1.56-4.26-.15-8.37,1.85-5.4,6.66-8.52,7.72-9.18Z"/>
  <path class="cls-1" d="M114.94,124c2.32-.17,7.88,32.56,9.03,67.51,.67,20.41-.3,37.3-1.29,48.81-5.88,.43-11.75,.86-17.63,1.29,2.31-13.72,5.32-34.48,7.1-59.99,2.5-35.88,.91-57.49,2.79-57.62Z"/>
  <path class="cls-2" d="M82.04,34.83c1.23-.33,2.45-.63,3.68-.91C32.03,50.32,.6,106.45,15.25,161.1c14.96,55.84,72.36,88.98,128.2,74.02,46.93-12.58,77.82-55.12,77.6-101.53,3.89,51.98-29.53,101.04-81.73,115.02-59.03,15.82-119.71-19.21-135.52-78.24C-12.02,111.32,23.01,50.65,82.04,34.83"/>
  <path class="cls-3" d="M610.55,184.76v-3.48c0-6.87,5.57-12.44,12.44-12.44h0c6.87,0,12.44,5.57,12.44,12.44v3.48c0,6.87-5.57,12.44-12.44,12.44h0c-6.87,0-12.44-5.57-12.44-12.44Z"/>
  <path class="cls-1" d="M268.82,187.32V84.51c0-5.46,4.42-9.88,9.88-9.88h0c5.46,0,9.88,4.42,9.88,9.88v102.81c0,5.46-4.42,9.88-9.88,9.88h0c-5.46,0-9.88-4.42-9.88-9.88Z"/>
  <path class="cls-1" d="M303.95,166.47v-.55h18.29c.81,0,1.46,.66,1.46,1.46h0c0,11.89,7.13,15.73,26.16,15.73,17.74,0,23.05-3.66,23.05-11.71,0-7.5-4.39-9.88-17.38-11.71l-24.88-3.29c-17.2-2.2-27.62-9.51-27.62-24.7s14.45-27.26,42.44-27.26,44.64,11.16,44.64,32.75v.55h-19.57v-1.1c0-10.79-5.49-16.46-25.61-16.46-16.65,0-22.5,3.66-22.5,12.26,0,7.13,3.66,9.7,17.38,11.53l21.04,2.93c21.59,2.74,31.47,10.06,31.47,25.06,0,17.01-16.83,27.08-42.44,27.08-29.27,0-45.92-11.53-45.92-32.56Z"/>
  <path class="cls-1" d="M406.58,189.15V114.33c0-4.45,3.6-8.05,8.05-8.05h2.01c4.45,0,8.05,3.6,8.05,8.05v15.76c0,.39,.32,.7,.7,.7h0c.34,0,.62-.24,.69-.57,2.89-14.37,12.75-25.78,31.17-25.78,20.67,0,29.64,14.82,29.64,32.01v3.84c0,4.45-3.6,8.05-8.05,8.05h-3.48c-4.45,0-8.05-3.6-8.05-8.05h0c0-12.99-5.49-19.03-19.03-19.03-15.55,0-21.95,8.6-21.95,24.88v42.99c0,4.45-3.6,8.05-8.05,8.05h-3.66c-4.45,0-8.05-3.6-8.05-8.05Z"/>
  <path class="cls-1" d="M495.85,146.71c0-25.25,16.83-42.26,44.45-42.26,18.59,0,32.64,8.21,36.35,23.44,.15,.62,.7,1.07,1.34,1.07h0s0-21.31,0-21.31c0-.76,.62-1.38,1.38-1.38h0c9.24,0,16.73,7.49,16.73,16.73v63.58c0,30.55-19.03,43.54-48.84,43.54-26.29,0-44.72-12.07-45.52-33.12-.03-.79,.59-1.45,1.38-1.45h16.82c.73,0,1.34,.58,1.37,1.31,.51,12.19,8.31,16.8,27.05,16.8,20.67,0,28.17-5.67,28.17-25.98v-21.61c0-.39-.32-.7-.7-.7h-.03c-.32,0-.6,.22-.68,.53-3.48,13.44-15.68,23.07-36.09,23.07-27.08,0-43.17-17.01-43.17-42.26Zm49.58,25.25c20.12,0,31.1-8.41,31.1-24.51v-2.56c0-15.37-11.34-23.23-30.55-23.23s-30.18,6.4-30.18,25.06,10.98,25.25,29.64,25.25Z"/>
  <path class="cls-1" d="M650.07,187.32V84.51c0-5.46,4.42-9.88,9.88-9.88h0c5.46,0,9.88,4.42,9.88,9.88v102.81c0,5.46-4.42,9.88-9.88,9.88h0c-5.46,0-9.88-4.42-9.88-9.88Z"/>
  <path class="cls-1" d="M726.9,197.2c-19.57,0-31.65-8.6-31.65-30.73v-40.54c0-1.76-1.42-3.18-3.18-3.18h-9c-1.76,0-3.18-1.42-3.18-3.18v-10.1c0-1.76,1.42-3.18,3.18-3.18h9c1.76,0,3.18-1.42,3.18-3.18v-13.58c0-1.76,1.42-3.18,3.18-3.18h13.21c1.76,0,3.18,1.42,3.18,3.18v13.58c0,1.76,1.42,3.18,3.18,3.18h26.56c1.76,0,3.18,1.42,3.18,3.18v10.1c0,1.76-1.42,3.18-3.18,3.18h-26.56c-1.76,0-3.18,1.42-3.18,3.18v39.44c0,11.16,5.12,14.09,16.46,14.09h13.28c1.76,0,3.18,1.42,3.18,3.18v11.38c0,1.76-1.42,3.18-3.18,3.18h-17.67Z"/>
</svg>