<svg width="40" height="40" viewBox="0 0 40 40" fill="none" xmlns="http://www.w3.org/2000/svg">
<path d="M0 5C0 2.23858 2.23858 0 5 0H35C37.7614 0 40 2.23858 40 5V35C40 37.7614 37.7614 40 35 40H5C2.23858 40 0 37.7614 0 35V5Z" fill="#EFEFEF" fill-opacity="0.76"/>
<path d="M3.3335 8.33334C3.3335 5.57192 5.57207 3.33334 8.3335 3.33334H31.6668C34.4283 3.33334 36.6668 5.57192 36.6668 8.33334V31.6667C36.6668 34.4281 34.4283 36.6667 31.6668 36.6667H8.3335C5.57207 36.6667 3.3335 34.4281 3.3335 31.6667V8.33334Z" fill="white" fill-opacity="0.76"/>
<path d="M11.1325 24.3333V17.0606H15.6922V18.0052H12.2298V20.2211H15.4542V21.1622H12.2298V23.3887H15.7348V24.3333H11.1325ZM21.1245 18.9711C21.0866 18.635 20.9304 18.3745 20.6558 18.1899C20.3811 18.0029 20.0355 17.9093 19.6188 17.9093C19.3205 17.9093 19.0625 17.9567 18.8447 18.0514C18.6269 18.1437 18.4576 18.2716 18.3369 18.4349C18.2185 18.5959 18.1593 18.7794 18.1593 18.9853C18.1593 19.1582 18.1996 19.3073 18.2801 19.4328C18.3629 19.5582 18.4706 19.6636 18.6032 19.7488C18.7381 19.8317 18.8826 19.9015 19.0364 19.9583C19.1903 20.0128 19.3383 20.0578 19.4803 20.0933L20.1906 20.2779C20.4226 20.3348 20.6605 20.4117 20.9043 20.5088C21.1482 20.6058 21.3743 20.7337 21.5826 20.8923C21.7909 21.0509 21.959 21.2474 22.0869 21.4818C22.2171 21.7162 22.2822 21.9967 22.2822 22.3234C22.2822 22.7353 22.1756 23.1011 21.9626 23.4207C21.7519 23.7403 21.4453 23.9924 21.0428 24.1771C20.6427 24.3618 20.1586 24.4541 19.5904 24.4541C19.0459 24.4541 18.5748 24.3677 18.1771 24.1948C17.7793 24.022 17.468 23.777 17.2431 23.4598C17.0182 23.1402 16.8939 22.7614 16.8703 22.3234H17.9711C17.9924 22.5862 18.0776 22.8052 18.2268 22.9804C18.3783 23.1532 18.5712 23.2822 18.8056 23.3674C19.0424 23.4503 19.3016 23.4917 19.5833 23.4917C19.8935 23.4917 20.1693 23.4432 20.4107 23.3461C20.6546 23.2467 20.8463 23.1094 20.986 22.9342C21.1257 22.7566 21.1955 22.5495 21.1955 22.3127C21.1955 22.0973 21.134 21.9209 21.0109 21.7836C20.8901 21.6463 20.7256 21.5327 20.5173 21.4427C20.3113 21.3528 20.0781 21.2734 19.8177 21.2048L18.9583 20.9704C18.3759 20.8118 17.9143 20.5786 17.5734 20.2708C17.2348 19.9631 17.0656 19.5559 17.0656 19.0493C17.0656 18.6302 17.1792 18.2645 17.4065 17.952C17.6337 17.6395 17.9415 17.3968 18.3298 17.224C18.718 17.0488 19.156 16.9612 19.6437 16.9612C20.1361 16.9612 20.5705 17.0476 20.947 17.2204C21.3257 17.3932 21.624 17.6312 21.8418 17.9342C22.0596 18.2349 22.1733 18.5805 22.1828 18.9711H21.1245ZM29.6339 19.4257H28.526C28.4834 19.1889 28.404 18.9806 28.288 18.8007C28.172 18.6207 28.03 18.468 27.8619 18.3426C27.6938 18.2171 27.5056 18.1224 27.2973 18.0585C27.0913 17.9946 26.8723 17.9626 26.6403 17.9626C26.2213 17.9626 25.846 18.068 25.5146 18.2787C25.1855 18.4894 24.9251 18.7983 24.7334 19.2055C24.544 19.6127 24.4493 20.1099 24.4493 20.697C24.4493 21.2888 24.544 21.7884 24.7334 22.1956C24.9251 22.6028 25.1867 22.9105 25.5182 23.1189C25.8496 23.3272 26.2225 23.4314 26.6368 23.4314C26.8664 23.4314 27.0842 23.4006 27.2902 23.339C27.4985 23.2751 27.6867 23.1816 27.8548 23.0585C28.0229 22.9354 28.1649 22.785 28.2809 22.6075C28.3993 22.4276 28.481 22.2216 28.526 21.9896L29.6339 21.9931C29.5747 22.3506 29.4599 22.6797 29.2895 22.9804C29.1214 23.2787 28.9048 23.5367 28.6396 23.7545C28.3768 23.9699 28.0762 24.1368 27.7376 24.2552C27.3991 24.3736 27.0298 24.4328 26.6297 24.4328C25.9999 24.4328 25.4388 24.2836 24.9464 23.9853C24.454 23.6847 24.0657 23.255 23.7816 22.6963C23.4999 22.1376 23.3591 21.4711 23.3591 20.697C23.3591 19.9205 23.5011 19.254 23.7852 18.6977C24.0693 18.139 24.4575 17.7105 24.95 17.4122C25.4424 17.1115 26.0023 16.9612 26.6297 16.9612C27.0156 16.9612 27.3754 17.0168 27.7092 17.1281C28.0454 17.237 28.3472 17.398 28.6147 17.611C28.8823 17.8217 29.1036 18.0798 29.2788 18.3852C29.454 18.6882 29.5724 19.035 29.6339 19.4257Z" fill="#363636"/>
</svg>
